<svg id="Calque_1" xmlns="http://www.w3.org/2000/svg" viewBox="0 0 210.6 122"><style>.st1{fill:#fff}</style><path id="XMLID_38_" d="M-401.1 384.4c-4.3-1.7-7-5-9.3-9-15-26.2-30.1-52.4-45.3-78.5-3.4-5.8-3.3-10.8.1-16.5 15.4-26.3 30.6-52.7 45.7-79.1 3.3-5.8 7.6-8.3 14.3-8.2 30.6.2 61.2.2 91.9 0 6.4 0 10.6 2.3 13.8 7.8 15.2 26.7 30.6 53.3 46.1 79.8 3.3 5.6 3.2 10.6 0 16.2-15.2 26-30.2 52.1-45.1 78.2-2.3 4.1-5 7.5-9.4 9.4-34.5-.1-68.7-.1-102.8-.1zm97.7-95.8c-.1-25.6-20.9-46.5-46.5-46.5-25.5 0-46.5 20.9-46.6 46.5-.1 25.6 21.1 46.7 46.7 46.6 25.8-.2 46.4-21 46.4-46.6z"/><path id="XMLID_35_" d="M-320 6.5c2.5 1.9 5.3 3.5 7.5 5.7 11.8 11.5 23.4 23.2 35.2 34.7 3.2 3.1 4.7 6.6 4.7 11.1-.1 17.1 0 34.2.2 51.3.1 4.5-1.4 8-4.6 11.1-12 11.9-24 24-35.9 36.1-3.2 3.3-6.9 4.8-11.5 4.8-17.1-.1-34.2 0-51.3.1-4.1 0-7.3-1.2-10.2-4.1-12.3-12.3-24.6-24.5-36.9-36.6-3-2.9-4.4-6.2-4.4-10.5 0-17.1-.1-34.2-.3-51.3-.1-4.6 1.4-8.2 4.7-11.5 11.5-11.4 22.8-23.1 34.4-34.5 2.6-2.5 5.8-4.4 8.7-6.5 19.9.1 39.8.1 59.7.1zm-62.8 77.2c-.3 18 14.8 33.2 32.9 33.3 17.9.1 32.8-14.9 32.9-32.9.1-17.9-14.5-32.7-32.7-33.1-17.7-.4-32.8 14.6-33.1 32.7z"/><path id="XMLID_32_" d="M-185.1 253.1c-9.1 0-18.2-.1-27.3 0-5.5.1-9.3-2.2-12-7-9-15.8-18.1-31.5-27.2-47.2-2.7-4.6-2.7-9-.1-13.6 9.2-15.8 18.3-31.7 27.4-47.5 2.6-4.6 6.4-6.8 11.8-6.8 18.3.1 36.6.1 54.9 0 5.3 0 9.1 2.2 11.7 6.8 9.1 15.8 18.1 31.5 27.3 47.2 2.8 4.9 2.7 9.4-.1 14.2-9.1 15.6-18.1 31.2-27.1 46.9-2.7 4.7-6.5 7-12 7-9.1-.1-18.2 0-27.3 0zm21.7-60.6c.3-12-9.3-22-21.3-22.2-12-.2-21.9 9.2-22.3 21.3-.4 11.7 9.5 22 21.4 22.3 12 .2 22-9.4 22.2-21.4z"/><g id="XMLID_19_"><path id="XMLID_21_" d="M-15.2 323l9.6-16.5-9.6-16.5h-19.3l-9.7 16.5 9.7 16.5z"/><circle id="XMLID_20_" class="st1" cx="-24.9" cy="306.5" r="6.8"/></g><g id="XMLID_16_"><path id="XMLID_18_" d="M-46.4 296l4.9-8.5-4.9-8.5H-56l-4.9 8.5 4.9 8.5z"/><circle id="XMLID_17_" class="st1" cx="-51.2" cy="287.6" r="3.4"/></g><g id="XMLID_13_"><path id="XMLID_15_" d="M-22.1 284l6.3-11.5-6.3-11.5h-12.7l-6.3 11.5 6.3 11.5z"/><circle id="XMLID_14_" class="st1" cx="-28.4" cy="272.6" r="4.5"/></g><g id="XMLID_30_"><path id="XMLID_31_" class="st1" d="M95.2 120.7L80.6 95.3h-7.5v25.4H61.8V58.1h21.7c3.9 0 7.3.8 10.3 2.3 3.1 1.6 5.5 3.8 7.1 6.7 1.6 2.8 2.4 6.1 2.4 9.6 0 4.4-1.4 8.3-4 11.4-2 2.3-4.5 4.1-7.4 5.3l15.6 27.1H95.2zM82.7 85.1c3.1 0 5.3-.7 6.8-2.2 1.5-1.5 2.3-3.5 2.3-6.1 0-2.6-.7-4.6-2.3-6.1-1.5-1.5-3.8-2.3-6.8-2.3h-9.6v16.7h9.6z"/></g><g id="XMLID_26_"><path id="XMLID_27_" class="st1" d="M129.2 122c-4.3 0-8.1-1-11.5-3.1-3.4-2-6-4.9-7.9-8.5-1.9-3.6-2.8-7.6-2.8-12s.9-8.5 2.8-12c1.9-3.6 4.5-6.5 7.8-8.5 1.9-1.1 3.9-2 6-2.5l-3.7-6.3 20-11.9 5.6 9.5-19.2 8.3c.8-.1 1.7-.1 2.6-.1 4 0 7.7 1 10.9 3s5.8 4.7 7.6 8.1c1.8 3.4 2.7 7.2 2.7 11.3 0 1.1 0 2-.1 2.7l-.2 2.2H118c.5 2.4 1.5 4.5 3 6.3 1.9 2.3 4.5 3.4 8 3.4 2.9 0 5.3-.5 7.2-1.6 1.9-1.1 3.3-2.5 4.5-4.4l1.3-2.2 8.8 5.8-1.3 2.1c-2.1 3.3-4.9 5.9-8.3 7.7-3.4 1.8-7.5 2.7-12 2.7zm9.7-29.6c-.6-2.1-1.5-3.8-2.8-4.9-1.7-1.6-4.1-2.4-7.2-2.4-3 0-5.4.9-7.2 2.8-1.3 1.3-2.3 2.8-3 4.6h20.2z"/></g><g id="XMLID_8_"><path id="XMLID_23_" class="st1" d="M176.4 122c-4.2 0-8.1-1-11.4-3.1-3.4-2-6-4.9-7.9-8.5-1.9-3.6-2.8-7.6-2.8-12.1 0-4.4.9-8.5 2.8-12 1.9-3.6 4.5-6.4 7.8-8.4s7.2-3.1 11.4-3.1c3.3 0 6.3.7 9.1 2.2.8.4 1.6.9 2.4 1.5v-2.3h10.7v44.5h-10.7v-2.3c-.7.5-1.5 1-2.3 1.5-2.9 1.4-5.9 2.1-9.1 2.1zm-.2-36.9c-2.2 0-4 .5-5.7 1.6-1.7 1.1-3 2.6-4 4.6-1 2-1.5 4.4-1.5 7 0 2.7.5 5.1 1.5 7.2 1 2 2.3 3.5 4 4.7 1.7 1.1 3.6 1.6 5.7 1.6 2.2 0 4.2-.5 5.9-1.6 1.7-1.1 3.1-2.6 4-4.6 1-2.1 1.5-4.4 1.5-7.1 0-2.6-.5-5-1.5-7.1-1-2-2.3-3.5-4-4.6-1.7-1.2-3.6-1.7-5.9-1.7z"/></g><path id="XMLID_44_" class="st1" d="M40 40H13.3L0 63l13.3 23H40l13.3-23L40 40zM26.6 72.8c-5.2 0-9.4-4.2-9.4-9.4s4.2-9.4 9.4-9.4 9.4 4.2 9.4 9.4-4.2 9.4-9.4 9.4z"/><path id="XMLID_9_" class="st1" d="M69.6 25H56.3l-6.7 12 6.7 12h13.3l6.7-12-6.7-12zM63 42c-2.6 0-4.7-2.1-4.7-4.7s2.1-4.7 4.7-4.7 4.7 2.1 4.7 4.7S65.6 42 63 42z"/><path id="XMLID_12_" class="st1" d="M41.3 0H23.8L15 15.5 23.8 31h17.5l8.8-15.5L41.3 0zm-8.7 21.8c-3.4 0-6.2-2.8-6.2-6.2 0-3.4 2.8-6.2 6.2-6.2 3.4 0 6.2 2.8 6.2 6.2-.1 3.4-2.8 6.2-6.2 6.2z"/><circle id="XMLID_5_" class="st1" cx="206.2" cy="116.2" r="4.4"/><g id="XMLID_106_"><g id="XMLID_105_"><path id="XMLID_50_" class="st1" d="M412 41h-26.6L372 64l13.3 23H412l13.3-23L412 41zm-13.4 32.8c-5.2 0-9.4-4.2-9.4-9.4s4.2-9.4 9.4-9.4 9.4 4.2 9.4 9.4-4.2 9.4-9.4 9.4z"/><path id="XMLID_47_" class="st1" d="M441.6 26h-13.3l-6.7 12 6.7 12h13.3l6.7-12-6.7-12zM435 43c-2.6 0-4.7-2.1-4.7-4.7s2.1-4.7 4.7-4.7 4.7 2.1 4.7 4.7-2.1 4.7-4.7 4.7z"/><path id="XMLID_10_" class="st1" d="M413.3 1h-17.5L387 16.5l8.8 15.5h17.5l8.8-15.5L413.3 1zm-8.7 21.8c-3.4 0-6.2-2.8-6.2-6.2 0-3.4 2.8-6.2 6.2-6.2 3.4 0 6.2 2.8 6.2 6.2-.1 3.4-2.8 6.2-6.2 6.2z"/></g><g id="XMLID_104_"><g id="XMLID_61_"><path id="XMLID_62_" class="st1" d="M467.2 121.7l-14.6-25.4h-7.5v25.4h-11.3V59.1h21.7c3.9 0 7.3.8 10.3 2.3 3.1 1.6 5.5 3.8 7.1 6.7 1.6 2.8 2.4 6.1 2.4 9.6 0 4.4-1.4 8.3-4 11.4-2 2.3-4.5 4.1-7.4 5.3l15.6 27.1h-12.3zm-12.5-35.6c3.1 0 5.3-.7 6.8-2.2 1.5-1.5 2.3-3.5 2.3-6.1 0-2.6-.7-4.6-2.3-6.1-1.5-1.5-3.8-2.3-6.8-2.3h-9.6v16.7h9.6z"/></g><g id="XMLID_57_"><path id="XMLID_58_" class="st1" d="M501.2 123c-4.3 0-8.1-1-11.5-3.1-3.4-2-6-4.9-7.9-8.5-1.9-3.6-2.8-7.6-2.8-12s.9-8.5 2.8-12c1.9-3.6 4.5-6.5 7.8-8.5 1.9-1.1 3.9-2 6-2.5l-3.7-6.3 20-11.9 5.6 9.5-19.2 8.3c.8-.1 1.7-.1 2.6-.1 4 0 7.7 1 10.9 3s5.8 4.7 7.6 8.1c1.8 3.4 2.7 7.2 2.7 11.3 0 1.1 0 2-.1 2.7l-.2 2.2H490c.5 2.4 1.5 4.5 3 6.3 1.9 2.3 4.5 3.4 8 3.4 2.9 0 5.3-.5 7.2-1.6 1.9-1.1 3.3-2.5 4.5-4.4l1.3-2.2 8.8 5.8-1.3 2.1c-2.1 3.3-4.9 5.9-8.3 7.7-3.4 1.8-7.5 2.7-12 2.7zm9.7-29.6c-.6-2.1-1.5-3.8-2.8-4.9-1.7-1.6-4.1-2.4-7.2-2.4-3 0-5.4.9-7.2 2.8-1.3 1.3-2.3 2.8-3 4.6h20.2z"/></g><g id="XMLID_53_"><path id="XMLID_54_" class="st1" d="M548.4 123c-4.2 0-8.1-1-11.4-3.1-3.4-2-6-4.9-7.9-8.5-1.9-3.6-2.8-7.6-2.8-12.1 0-4.4.9-8.5 2.8-12 1.9-3.6 4.5-6.4 7.8-8.4s7.2-3.1 11.4-3.1c3.3 0 6.3.7 9.1 2.2.8.4 1.6.9 2.4 1.5v-2.3h10.7v44.5h-10.7v-2.3c-.7.5-1.5 1-2.3 1.5-2.9 1.4-5.9 2.1-9.1 2.1zm-.2-36.9c-2.2 0-4 .5-5.7 1.6-1.7 1.1-3 2.6-4 4.6-1 2-1.5 4.4-1.5 7 0 2.7.5 5.1 1.5 7.2 1 2 2.3 3.5 4 4.7 1.7 1.1 3.6 1.6 5.7 1.6 2.2 0 4.2-.5 5.9-1.6 1.7-1.1 3.1-2.6 4-4.6 1-2.1 1.5-4.4 1.5-7.1 0-2.6-.5-5-1.5-7.1-1-2-2.3-3.5-4-4.6-1.7-1.2-3.6-1.7-5.9-1.7z"/></g><circle id="XMLID_65_" class="st1" cx="578.2" cy="117.2" r="4.4"/></g></g></svg>